<svg width="70" height="68" viewBox="0 0 70 68" fill="none" xmlns="http://www.w3.org/2000/svg">
<path fill-rule="evenodd" clip-rule="evenodd" d="M25.3333 67.1709H44.3333V51.9392C50.0017 48.6459 53.8333 42.5342 53.8333 35.5042C53.8333 25.0226 45.315 16.5042 34.8333 16.5042C24.3517 16.5042 15.8333 25.0226 15.8333 35.5042C15.8333 42.5342 19.665 48.6459 25.3333 51.9392V67.1709ZM38 60.8376V48.2976L41.1667 46.4609C45.0933 44.1809 47.5 40.0009 47.5 35.5042C47.5 28.5059 41.8317 22.8376 34.8333 22.8376C27.835 22.8376 22.1667 28.5059 22.1667 35.5042C22.1667 40.0009 24.605 44.1809 28.5 46.4609L31.6667 48.2976V60.8376H38ZM9.5 38.8293H0V32.496H9.5V38.8293ZM8.075 13.2109L12.54 8.74592L18.2083 14.4459L13.7433 18.9109L8.075 13.2109ZM38 10.3293V0.829346H31.6667V10.3293H38ZM60.1667 38.8293H69.6667V32.496H60.1667V38.8293ZM57.095 8.71421L51.4267 14.4142L55.86 18.8475L61.56 13.1792L57.095 8.71421Z" fill="#333333"/>
</svg>
